<svg width="115" height="120" viewBox="0 0 115 120" fill="none" xmlns="http://www.w3.org/2000/svg">
<g filter="url(#filter0_d_0_527)">
<g clip-path="url(#clip0_0_527)">
<path d="M57.5 58.468C65.4964 58.468 72.002 51.6807 72.002 43.338C72.002 41.1873 71.5667 39.1415 70.7879 37.287C71.5843 35.3846 72.002 33.3217 72.002 31.234C72.002 29.0833 71.5667 27.0375 70.7879 25.183C71.5843 23.2807 72.002 21.2177 72.002 19.13C72.002 10.7873 65.4964 4 57.5 4C49.5036 4 42.998 10.7873 42.998 19.13C42.998 21.2177 43.4157 23.2807 44.2122 25.183C43.4333 27.0375 42.998 29.0833 42.998 31.234C42.998 33.3217 43.4157 35.3846 44.2122 37.287C43.4333 39.1415 42.998 41.1873 42.998 43.338C42.998 51.6807 49.5036 58.468 57.5 58.468ZM48.7988 31.234C48.7988 26.2284 52.7022 22.156 57.5 22.156C62.2978 22.156 66.2012 26.2284 66.2012 31.234C63.7755 29.3383 60.762 28.208 57.5 28.208C54.238 28.208 51.2245 29.3383 48.7988 31.234ZM57.5 52.416C52.7022 52.416 48.7988 48.3436 48.7988 43.338C48.7988 38.3324 52.7022 34.26 57.5 34.26C62.2978 34.26 66.2012 38.3324 66.2012 43.338C66.2012 48.3436 62.2978 52.416 57.5 52.416ZM57.5 10.052C62.2978 10.052 66.2012 14.1244 66.2012 19.13C63.7755 17.2343 60.762 16.104 57.5 16.104C54.238 16.104 51.2245 17.2343 48.799 19.1381C48.7988 14.1244 52.7022 10.052 57.5 10.052Z" fill="#FFCD00"/>
<path d="M98.2988 10.0518C93.501 10.0518 89.5977 14.1241 89.5977 19.1298V47.0859C86.5362 45.9623 82.9884 46.6748 80.5446 49.2243L58.8394 71.8697C58.3529 72.3774 57.9072 72.9163 57.5 73.4801C57.0928 72.9163 56.6471 72.3774 56.1606 71.8697L34.4554 49.2243C32.0116 46.6748 28.4638 45.9623 25.4023 47.0859V19.1298C25.4023 14.1241 21.499 10.0518 16.7012 10.0518C11.9033 10.0518 8 14.1241 8 19.1298V68.8655L25.4023 96.0994V107.287H89.5977V96.0994L107 68.8655V19.1298C107 14.1241 103.097 10.0518 98.2988 10.0518ZM13.8008 67.0329V19.1298C13.8008 17.4612 15.1019 16.1038 16.7012 16.1038C18.3004 16.1038 19.6016 17.4612 19.6016 19.1298V55.7443C19.6321 58.0352 20.4784 60.3184 22.15 62.0626L43.8482 84.7005L47.95 80.4211L26.252 57.7832C25.121 56.6033 25.121 54.6836 26.252 53.5039C27.3829 52.3239 29.2231 52.3239 30.3539 53.5039L52.0589 76.149C53.6972 77.8587 54.5996 80.1407 54.5996 82.5748V101.235H31.2031V94.2669L13.8008 67.0329ZM101.199 67.0329L83.7969 94.2669V101.235H60.4004V82.5748C60.4004 80.1407 61.3028 77.8587 62.9413 76.1488L84.6463 53.5037C85.7771 52.3239 87.6173 52.3239 88.7482 53.5037C89.879 54.6834 89.879 56.6033 88.7482 57.783L67.05 80.4211L71.1518 84.7005L92.85 62.0626C94.5217 60.3184 95.3679 58.0354 95.3921 55.7443C95.3984 55.7443 95.3984 19.1298 95.3984 19.1298C95.3984 17.4612 96.6996 16.1038 98.2988 16.1038C99.8981 16.1038 101.199 17.4612 101.199 19.1298V67.0329Z" fill="#FFCD00"/>
</g>
</g>
<defs>
<filter id="filter0_d_0_527" x="0" y="0" width="115" height="119.288" filterUnits="userSpaceOnUse" color-interpolation-filters="sRGB">
<feFlood flood-opacity="0" result="BackgroundImageFix"/>
<feColorMatrix in="SourceAlpha" type="matrix" values="0 0 0 0 0 0 0 0 0 0 0 0 0 0 0 0 0 0 127 0" result="hardAlpha"/>
<feOffset dy="4"/>
<feGaussianBlur stdDeviation="4"/>
<feComposite in2="hardAlpha" operator="out"/>
<feColorMatrix type="matrix" values="0 0 0 0 1 0 0 0 0 0.8 0 0 0 0 0 0 0 0 0.25 0"/>
<feBlend mode="normal" in2="BackgroundImageFix" result="effect1_dropShadow_0_527"/>
<feBlend mode="normal" in="SourceGraphic" in2="effect1_dropShadow_0_527" result="shape"/>
</filter>
<clipPath id="clip0_0_527">
<rect width="99" height="103.287" fill="white" transform="translate(8 4)"/>
</clipPath>
</defs>
</svg>
