<svg width="179" height="179" viewBox="0 0 179 179" fill="none" xmlns="http://www.w3.org/2000/svg">
<path d="M74.582 55.9375L89.4987 70.8542L104.415 55.9375" stroke="#FFCD00" stroke-width="10" stroke-linecap="round" stroke-linejoin="round"/>
<path d="M104.415 123.063L89.4987 108.146L74.582 123.063M89.4987 70.8545V29.8337C89.4987 25.8775 91.0703 22.0834 93.8677 19.286C96.6651 16.4886 100.459 14.917 104.415 14.917H149.165C153.122 14.917 156.916 16.4886 159.713 19.286C162.51 22.0834 164.082 25.8775 164.082 29.8337V70.8545H89.4987Z" stroke="#FFCD00" stroke-width="10" stroke-linecap="round" stroke-linejoin="round"/>
<path d="M123.062 74.584L108.145 89.5007L123.062 104.417M89.4994 108.146V149.167C89.4994 153.123 87.9278 156.918 85.1304 159.715C82.3329 162.512 78.5388 164.084 74.5827 164.084H29.8327C25.8765 164.084 22.0824 162.512 19.285 159.715C16.4876 156.918 14.916 153.123 14.916 149.167V108.146H89.4994Z" stroke="#FFCD00" stroke-width="10" stroke-linecap="round" stroke-linejoin="round"/>
<path d="M55.9375 104.417L70.8542 89.5007L55.9375 74.584M108.146 89.5007H149.167C153.123 89.5007 156.917 91.0722 159.714 93.8696C162.512 96.6671 164.083 100.461 164.083 104.417V149.167C164.083 153.123 162.512 156.918 159.714 159.715C156.917 162.512 153.123 164.084 149.167 164.084H108.146V89.5007Z" stroke="#FFCD00" stroke-width="10" stroke-linecap="round" stroke-linejoin="round"/>
<path d="M70.8535 89.5003H29.8327C25.8765 89.5003 22.0824 87.9287 19.285 85.1313C16.4876 82.3339 14.916 78.5398 14.916 74.5837V29.8337C14.916 25.8775 16.4876 22.0834 19.285 19.286C22.0824 16.4886 25.8765 14.917 29.8327 14.917H70.8535" stroke="#FFCD00" stroke-width="10" stroke-linecap="round" stroke-linejoin="round"/>
</svg>
