<svg width="179" height="179" viewBox="0 0 179 179" fill="none" xmlns="http://www.w3.org/2000/svg">
<path d="M52.2077 55.9372C72.8033 55.9372 89.4993 47.5892 89.4993 37.2913C89.4993 26.9935 72.8033 18.6455 52.2077 18.6455C31.6121 18.6455 14.916 26.9935 14.916 37.2913C14.916 47.5892 31.6121 55.9372 52.2077 55.9372Z" stroke="#FFCD00" stroke-width="10" stroke-linecap="round" stroke-linejoin="round"/>
<path d="M14.916 37.291V63.3952C14.916 73.6914 31.6115 82.041 52.2077 82.041C72.8039 82.041 89.4993 73.6914 89.4993 63.3952V37.291" stroke="#FFCD00" stroke-width="10" stroke-linecap="round" stroke-linejoin="round"/>
<path d="M14.916 63.3955V89.4997C14.916 99.7959 31.6115 108.146 52.2077 108.146C72.8039 108.146 89.4993 99.7959 89.4993 89.4997V63.3955" stroke="#FFCD00" stroke-width="10" stroke-linecap="round" stroke-linejoin="round"/>
<path d="M14.916 89.5V115.604C14.916 125.9 31.6115 134.25 52.2077 134.25C72.8039 134.25 89.4993 125.9 89.4993 115.604V89.5" stroke="#FFCD00" stroke-width="10" stroke-linecap="round" stroke-linejoin="round"/>
<path d="M14.916 115.604V141.708C14.916 152.004 31.6115 160.353 52.2077 160.353C72.8039 160.353 89.4993 152.004 89.4993 141.708V115.604" stroke="#FFCD00" stroke-width="10" stroke-linecap="round" stroke-linejoin="round"/>
<path d="M126.792 108.145C147.387 108.145 164.083 99.7972 164.083 89.4994C164.083 79.2015 147.387 70.8535 126.792 70.8535C106.196 70.8535 89.5 79.2015 89.5 89.4994C89.5 99.7972 106.196 108.145 126.792 108.145Z" stroke="#FFCD00" stroke-width="10" stroke-linecap="round" stroke-linejoin="round"/>
<path d="M89.5 89.5V115.604C89.5 125.9 106.195 134.25 126.792 134.25C147.388 134.25 164.083 125.9 164.083 115.604V89.5" stroke="#FFCD00" stroke-width="10" stroke-linecap="round" stroke-linejoin="round"/>
<path d="M89.5 115.604V141.708C89.5 152.004 106.195 160.353 126.792 160.353C147.388 160.353 164.083 152.004 164.083 141.708V115.604" stroke="#FFCD00" stroke-width="10" stroke-linecap="round" stroke-linejoin="round"/>
</svg>
