<svg width="131" height="125" viewBox="0 0 131 125" fill="none" xmlns="http://www.w3.org/2000/svg">
<g filter="url(#filter0_d_0_572)">
<path d="M11.3691 102.668H119.631C121.492 102.668 123 101.16 123 99.2988C123 97.4379 121.492 95.9296 119.631 95.9296H95.8503C96.2548 71.7131 100.985 58.3278 104.981 51.2964C109.178 43.9142 113.373 42.0067 113.767 41.8409C115.461 41.332 116.411 39.6167 116.019 37.8883C115.623 36.1476 113.875 35.0377 112.114 35.3307C111.664 35.4053 100.983 37.268 90.2965 46.1734C89.8649 46.5323 89.4411 46.8999 89.0226 47.2719C94.6992 25.9498 101.995 13.5779 102.081 13.4348C102.926 12.0249 102.632 10.2113 101.383 9.14182C100.135 8.07317 98.2974 8.06089 97.0348 9.11287C96.7979 9.31028 91.1564 14.0437 84.0478 22.7553C78.5668 29.4725 71.303 39.7405 65.5026 52.7353C62.5546 46.1173 58.9811 39.6483 54.8267 33.4163C44.5666 18.0253 34.3934 9.46996 33.9652 9.11287C32.7026 8.06089 30.8654 8.07317 29.6169 9.1427C28.3684 10.2113 28.0736 12.0249 28.9194 13.4348C29.0062 13.5796 36.2955 25.8919 41.9809 47.2754C41.5616 46.9025 41.136 46.534 40.7035 46.1734C30.017 37.268 19.3358 35.4062 18.8857 35.3307C17.1265 35.0386 15.377 36.1476 14.9813 37.8883C14.5891 39.6176 15.5393 41.332 17.2327 41.8409C17.6266 42.0067 21.8223 43.9142 26.0188 51.2973C30.0152 58.3278 34.7452 71.7131 35.1497 95.9296H11.3691C9.50822 95.9296 8 97.4387 8 99.2988C8 101.16 9.50822 102.668 11.3691 102.668ZM94.3527 51.5658C95.9337 50.2287 97.5218 49.0688 99.0668 48.0659C92.7795 59.1692 89.4376 75.2533 89.1129 95.9296H75.6662C76.2295 78.8163 81.227 62.6646 94.3527 51.5658ZM87.7214 28.9504C84.8945 36.6301 81.8851 46.4998 79.5627 58.2962C78.0527 60.6195 76.6927 63.077 75.4969 65.6697C74.3651 68.1211 73.3771 70.6918 72.5331 73.374C71.5995 69.467 70.4537 65.5881 69.0981 61.7487C69.0946 61.7381 69.0911 61.7285 69.0876 61.718C74.3887 47.6729 81.8667 36.4196 87.7214 28.9504ZM68.8121 95.9296H62.0773C61.6553 82.5628 58.6661 69.417 51.4373 58.2962C49.1167 46.5051 46.1073 36.6372 43.2812 28.9583C58.3809 48.1826 68.0067 71.4797 68.8121 95.9296ZM31.9332 48.0659C44.8535 56.4546 54.5292 71.4911 55.3338 95.9296C51.2654 95.9296 45.9274 95.9296 41.8879 95.9296C41.5624 75.2533 38.2205 59.1692 31.9332 48.0659Z" fill="#FFCD00"/>
</g>
<defs>
<filter id="filter0_d_0_572" x="0" y="0" width="131" height="125" filterUnits="userSpaceOnUse" color-interpolation-filters="sRGB">
<feFlood flood-opacity="0" result="BackgroundImageFix"/>
<feColorMatrix in="SourceAlpha" type="matrix" values="0 0 0 0 0 0 0 0 0 0 0 0 0 0 0 0 0 0 127 0" result="hardAlpha"/>
<feOffset dy="4"/>
<feGaussianBlur stdDeviation="4"/>
<feComposite in2="hardAlpha" operator="out"/>
<feColorMatrix type="matrix" values="0 0 0 0 1 0 0 0 0 0.8 0 0 0 0 0 0 0 0 0.25 0"/>
<feBlend mode="normal" in2="BackgroundImageFix" result="effect1_dropShadow_0_572"/>
<feBlend mode="normal" in="SourceGraphic" in2="effect1_dropShadow_0_572" result="shape"/>
</filter>
</defs>
</svg>
