<svg width="141" height="141" viewBox="0 0 141 141" fill="none" xmlns="http://www.w3.org/2000/svg">
<g filter="url(#filter0_d_0_535)">
<path d="M114.689 69.4668H102.454C100.788 69.4668 99.176 69.6943 97.6416 70.1128C94.6147 64.1626 88.4351 60.0742 81.3142 60.0742H59.6858C52.5649 60.0742 46.3853 64.1626 43.3584 70.1128C41.824 69.6943 40.2117 69.4668 38.5464 69.4668H26.3105C16.2141 69.4668 8 77.6809 8 87.7773V107.337C8 113.395 12.9285 118.324 18.9863 118.324H122.014C128.072 118.324 133 113.395 133 107.337V87.7773C133 77.6809 124.786 69.4668 114.689 69.4668ZM41.3752 78.3853V111H18.9863C16.967 111 15.3242 109.357 15.3242 107.338V87.7776C15.3242 81.7197 20.2527 76.7913 26.3105 76.7913H38.5464C39.5405 76.7913 40.5032 76.9263 41.4197 77.1751C41.3933 77.5757 41.3752 77.9785 41.3752 78.3853ZM92.3005 111H48.6995V78.385C48.6995 72.3272 53.6279 67.3987 59.6858 67.3987H81.3142C87.3721 67.3987 92.3005 72.3272 92.3005 78.385V111ZM125.676 107.338C125.676 109.357 124.033 111 122.014 111H99.6248V78.385C99.6248 77.978 99.6067 77.5752 99.5803 77.1748C100.497 76.9263 101.459 76.791 102.454 76.791H114.689C120.747 76.791 125.676 81.7195 125.676 87.7773V107.338Z" fill="#FFCD00"/>
<path d="M32.4292 34.8848C23.4573 34.8848 16.1582 42.1838 16.1582 51.1558C16.158 60.1277 23.4573 67.4268 32.4292 67.4268C41.4009 67.4268 48.7002 60.1277 48.7002 51.1558C48.7002 42.1838 41.4011 34.8848 32.4292 34.8848ZM32.429 60.1025C27.4956 60.1025 23.4822 56.0891 23.4822 51.1558C23.4822 46.2224 27.4956 42.209 32.429 42.209C37.3623 42.209 41.3757 46.2224 41.3757 51.1558C41.3757 56.0891 37.3623 60.1025 32.429 60.1025Z" fill="#FFCD00"/>
<path d="M70.4995 14.6763C58.5132 14.6763 48.7617 24.4277 48.7617 36.4141C48.7617 48.4004 58.5132 58.1519 70.4995 58.1519C82.4858 58.1519 92.2373 48.4004 92.2373 36.4141C92.2373 24.428 82.4858 14.6763 70.4995 14.6763ZM70.4995 50.8276C62.5518 50.8276 56.0859 44.3618 56.0859 36.4141C56.0859 28.4666 62.5518 22.0005 70.4995 22.0005C78.4473 22.0005 84.9131 28.4663 84.9131 36.4141C84.9131 44.3618 78.4473 50.8276 70.4995 50.8276Z" fill="#FFCD00"/>
<path d="M108.572 34.8848C99.6001 34.8848 92.3008 42.1838 92.3008 51.1558C92.301 60.1277 99.6001 67.4268 108.572 67.4268C117.544 67.4268 124.843 60.1277 124.843 51.1558C124.843 42.1838 117.544 34.8848 108.572 34.8848ZM108.572 60.1025C103.639 60.1025 99.625 56.0891 99.625 51.1558C99.6252 46.2224 103.639 42.209 108.572 42.209C113.505 42.209 117.519 46.2224 117.519 51.1558C117.519 56.0891 113.505 60.1025 108.572 60.1025Z" fill="#FFCD00"/>
</g>
<defs>
<filter id="filter0_d_0_535" x="0" y="0" width="141" height="141" filterUnits="userSpaceOnUse" color-interpolation-filters="sRGB">
<feFlood flood-opacity="0" result="BackgroundImageFix"/>
<feColorMatrix in="SourceAlpha" type="matrix" values="0 0 0 0 0 0 0 0 0 0 0 0 0 0 0 0 0 0 127 0" result="hardAlpha"/>
<feOffset dy="4"/>
<feGaussianBlur stdDeviation="4"/>
<feComposite in2="hardAlpha" operator="out"/>
<feColorMatrix type="matrix" values="0 0 0 0 1 0 0 0 0 0.8 0 0 0 0 0 0 0 0 0.25 0"/>
<feBlend mode="normal" in2="BackgroundImageFix" result="effect1_dropShadow_0_535"/>
<feBlend mode="normal" in="SourceGraphic" in2="effect1_dropShadow_0_535" result="shape"/>
</filter>
</defs>
</svg>
