<svg width="179" height="179" viewBox="0 0 179 179" fill="none" xmlns="http://www.w3.org/2000/svg">
<path d="M139.844 151.031H88.5379L108.597 171.09L100.688 179L67.125 145.438L100.688 111.875L108.597 119.785L88.5379 139.844H139.844V72.7188H151.031V139.844C151.028 142.81 149.849 145.654 147.751 147.751C145.654 149.849 142.81 151.028 139.844 151.031Z" fill="#FFCD00"/>
<path d="M123.062 44.75V22.375C123.065 19.4088 124.245 16.5649 126.343 14.4675C128.44 12.3701 131.284 11.1905 134.25 11.1875H156.625C159.591 11.1905 162.435 12.3701 164.532 14.4675C166.63 16.5649 167.81 19.4088 167.812 22.375V44.75C167.81 47.7162 166.63 50.5601 164.532 52.6575C162.435 54.7549 159.591 55.9345 156.625 55.9375H134.25C131.284 55.9345 128.44 54.7549 126.343 52.6575C124.245 50.5601 123.065 47.7162 123.062 44.75ZM156.625 22.375H134.25V44.7612L156.625 44.75V22.375Z" fill="#FFCD00"/>
<path d="M33.5625 27.9688H84.8684L64.8092 7.90956L72.7188 0L106.281 33.5625L72.7188 67.125L64.8092 59.2154L84.8684 39.1562H33.5625V106.281H22.375L22.375 39.1562C22.378 36.19 23.5576 33.3462 25.655 31.2488C27.7524 29.1513 30.5963 27.9717 33.5625 27.9688Z" fill="#FFCD00"/>
<path d="M33.5625 167.812V134.25H44.75V167.812H33.5625Z" fill="#FFCD00"/>
<path d="M11.1875 167.812L11.1875 123.062H22.375L22.375 167.812H11.1875Z" fill="#FFCD00"/>
</svg>
