<svg width="179" height="47" viewBox="0 0 179 47" fill="none" xmlns="http://www.w3.org/2000/svg">
<path d="M0.936416 44.4607C0.310898 43.8352 0 43.0179 0 42.0033V13.1643C0 12.1516 0.310898 11.3417 0.936416 10.7367C1.55821 10.1317 2.3792 9.83008 3.39195 9.83008H22.7551C22.9506 10.0646 23.1144 10.396 23.254 10.8242C23.3899 11.2542 23.4588 11.7215 23.4588 12.2279C23.4588 13.0861 23.254 13.7489 22.8445 14.2162C22.4349 14.6834 21.8801 14.918 21.1783 14.918H6.2012V24.6284H21.0014C21.1969 24.863 21.3607 25.1944 21.4985 25.6226C21.6362 26.0526 21.7033 26.5199 21.7033 27.0262C21.7033 27.9236 21.4985 28.5863 21.0889 29.0145C20.6793 29.4445 20.1227 29.6586 19.4227 29.6586H6.2012V40.3055H23.0474C23.2019 40.5401 23.3601 40.8714 23.5165 41.2996C23.671 41.7297 23.7511 42.1969 23.7511 42.7033C23.7511 43.6006 23.5463 44.2727 23.1367 44.7213C22.7272 45.17 22.1705 45.3934 21.4687 45.3934H3.39195C2.3792 45.3953 1.55821 45.0844 0.936416 44.4607Z" fill="#FFCC00"/>
<path d="M36.4423 45.2201C36.1705 45.3374 35.7889 45.4435 35.3011 45.5421C34.8134 45.6389 34.2772 45.6873 33.6926 45.6873C32.5607 45.6873 31.723 45.4733 31.1775 45.0451C30.6321 44.6169 30.3584 43.8946 30.3584 42.88V23.6937C30.3584 22.7182 30.5539 21.9288 30.943 21.3238C31.332 20.7187 31.9557 20.1453 32.8158 19.598C33.9458 18.8962 35.3886 18.3116 37.1442 17.8425C38.8978 17.3752 40.8302 17.1406 42.9358 17.1406C46.3668 17.1406 48.0833 18.1161 48.0833 20.0653C48.0833 20.5326 48.0051 20.9719 47.8487 21.3815C47.6923 21.7911 47.5173 22.1522 47.3219 22.4631C46.9328 22.3849 46.445 22.3086 45.8605 22.2285C45.2759 22.1504 44.6504 22.1113 43.9895 22.1113C42.4294 22.1113 41.0052 22.277 39.7188 22.6083C38.4324 22.9397 37.3396 23.3604 36.4423 23.8668V45.2201Z" fill="#FFCC00"/>
<path d="M62.8835 17.1406C66.5101 17.1406 69.3975 17.93 71.5421 19.5105C73.6868 21.0892 74.7591 23.5764 74.7591 26.9683V40.5976C74.7591 41.4949 74.5543 42.1874 74.1447 42.6733C73.7352 43.1611 73.1785 43.619 72.4785 44.0472C71.4639 44.6318 70.157 45.14 68.5597 45.5682C66.9587 45.9964 65.1082 46.2105 63.0027 46.2105C59.2198 46.2105 56.2653 45.4695 54.1412 43.9876C52.0152 42.5058 50.9521 40.322 50.9521 37.4365C50.9521 34.8636 51.7806 32.894 53.4393 31.5275C55.0962 30.163 57.4847 29.3252 60.6049 29.0124L68.7366 28.1933V26.9069C68.7366 25.1905 68.18 23.9431 67.0704 23.1631C65.959 22.3831 64.4082 21.994 62.42 21.994C60.8599 21.994 59.3576 22.2081 57.9166 22.6381C56.472 23.0663 55.1856 23.554 54.0555 24.0995C53.6664 23.7868 53.3332 23.407 53.0614 22.9583C52.7896 22.5097 52.6518 22.0126 52.6518 21.4671C52.6518 20.8044 52.8175 20.2589 53.1508 19.8289C53.4803 19.4007 53.9997 19.0302 54.6997 18.7175C55.7906 18.172 57.0398 17.7717 58.4435 17.5185C59.8416 17.2691 61.3235 17.1406 62.8835 17.1406ZM63.0008 41.4167C64.3654 41.4167 65.555 41.2808 66.5696 41.0071C67.5824 40.7353 68.3047 40.443 68.7329 40.1303V32.7004L62.3567 33.3445C60.562 33.54 59.2179 33.9403 58.3206 34.5434C57.4233 35.1485 56.9746 36.0756 56.9746 37.3229C56.9746 38.6093 57.4624 39.6146 58.4379 40.3351C59.4134 41.0574 60.9325 41.4167 63.0008 41.4167Z" fill="#FFCC00"/>
<path d="M119.625 17.1406C123.251 17.1406 126.139 17.93 128.283 19.5105C130.428 21.0892 131.5 23.5764 131.5 26.9683V40.5976C131.5 41.4949 131.296 42.1874 130.886 42.6733C130.476 43.1611 129.92 43.619 129.22 44.0472C128.205 44.6318 126.898 45.14 125.301 45.5682C123.7 45.9964 121.849 46.2105 119.744 46.2105C115.961 46.2105 113.007 45.4695 110.882 43.9876C108.756 42.5058 107.693 40.322 107.693 37.4365C107.693 34.8636 108.522 32.894 110.181 31.5275C111.837 30.163 114.226 29.3252 117.346 29.0124L125.478 28.1933V26.9069C125.478 25.1905 124.921 23.9431 123.812 23.1631C122.7 22.3831 121.149 21.994 119.161 21.994C117.601 21.994 116.099 22.2081 114.658 22.6381C113.213 23.0663 111.927 23.554 110.797 24.0995C110.408 23.7868 110.074 23.407 109.803 22.9583C109.531 22.5097 109.393 22.0126 109.393 21.4671C109.393 20.8044 109.559 20.2589 109.892 19.8289C110.221 19.4007 110.741 19.0302 111.441 18.7175C112.532 18.172 113.781 17.7717 115.185 17.5185C116.585 17.2691 118.067 17.1406 119.625 17.1406ZM119.742 41.4167C121.107 41.4167 122.296 41.2808 123.311 41.0071C124.324 40.7353 125.046 40.443 125.474 40.1303V32.7004L119.098 33.3445C117.303 33.54 115.959 33.9403 115.062 34.5434C114.164 35.1485 113.716 36.0756 113.716 37.3229C113.716 38.6093 114.204 39.6146 115.179 40.3351C116.155 41.0574 117.676 41.4167 119.742 41.4167Z" fill="#0E9749"/>
<path d="M156.216 23.3995C155.143 22.5041 153.691 22.0536 151.858 22.0536C150.493 22.0536 149.275 22.2285 148.201 22.5804C147.129 22.9304 146.202 23.3213 145.422 23.7495V45.2201C145.15 45.3374 144.768 45.4435 144.281 45.5421C143.793 45.6389 143.257 45.6873 142.672 45.6873C141.54 45.6873 140.702 45.4733 140.157 45.0451C139.612 44.6169 139.338 43.8946 139.338 42.88V23.5764C139.338 22.6791 139.513 21.9586 139.865 21.4113C140.215 20.8658 140.801 20.3203 141.618 19.773C142.709 19.1103 144.134 18.5071 145.889 17.9598C147.643 17.4143 149.633 17.1406 151.856 17.1406C155.639 17.1406 158.602 17.9895 160.747 19.6855C162.892 21.3815 163.966 23.9469 163.966 27.3779V45.2201C163.692 45.3374 163.301 45.4435 162.797 45.5421C162.288 45.6389 161.743 45.6873 161.158 45.6873C160.027 45.6873 159.189 45.4733 158.643 45.0451C158.098 44.6169 157.824 43.8946 157.824 42.88V27.6125C157.824 25.7024 157.288 24.2987 156.216 23.3995Z" fill="#0E9749"/>
<path d="M171.63 9.53756C171.63 8.52295 171.98 7.67589 172.684 6.99266C173.385 6.3113 174.281 5.96875 175.374 5.96875C176.465 5.96875 177.343 6.3113 178.006 6.99266C178.669 7.67589 179 8.52295 179 9.53756C179 10.5522 178.669 11.3992 178.006 12.0824C177.343 12.7657 176.465 13.1064 175.374 13.1064C174.281 13.1064 173.385 12.7657 172.684 12.0824C171.98 11.3992 171.63 10.5503 171.63 9.53756ZM178.414 45.22C178.142 45.3373 177.76 45.4434 177.273 45.5421C176.785 45.6389 176.23 45.6873 175.606 45.6873C174.475 45.6873 173.637 45.4732 173.091 45.045C172.546 44.6169 172.272 43.8945 172.272 42.8799V18.1366C172.583 18.0584 172.981 17.9616 173.471 17.8443C173.959 17.727 174.514 17.6693 175.137 17.6693C176.269 17.6693 177.098 17.8834 177.624 18.3134C178.151 18.7435 178.414 19.4826 178.414 20.5363V45.22Z" fill="#0E9749"/>
<path d="M95.3528 8.60289C95.2839 8.61592 95.2169 8.57869 95.1908 8.51167C94.9842 7.97737 94.7273 7.45425 94.394 6.92181C93.5097 5.50881 92.3723 4.4458 90.9518 3.4796C89.3471 2.38866 86.454 0.845347 84.3299 0.435781C81.0254 -0.200907 72.8956 -0.320053 68.2135 1.33124C61.586 3.66763 59.6089 5.66891 56.6135 7.93455C56.4161 8.08349 56.4887 8.38135 56.7345 8.37949C63.5798 8.33295 66.2848 8.4763 69.1741 9.19118C72.2384 9.95073 75.2859 10.9746 77.2518 11.8254C78.851 12.518 80.2231 14.307 81.5672 15.236C82.4533 15.6511 82.5483 15.8373 83.4381 15.6977C81.6081 10.5837 77.5888 7.08005 75.5987 6.18273C75.1649 5.98726 74.828 5.76944 74.357 5.71359C76.254 5.5386 78.1194 6.27023 79.8005 7.16941C81.6696 8.16912 83.4326 9.40899 84.84 10.9951C86.2437 12.5775 87.2788 14.523 87.5915 16.6136H87.5952C87.8615 20.5939 87.8131 25.8959 87.7442 31.6782C87.6511 39.3557 85.5307 44.1513 85.0261 45.1845C84.9759 45.2851 85.0541 45.3949 85.1676 45.3949H96.1123C96.2259 45.3949 96.3041 45.2851 96.2538 45.1827C95.8108 44.2816 94.1111 40.6309 93.5507 36.7103C92.9047 32.1883 93.0462 29.5578 93.1616 24.44C93.2212 21.8077 93.6698 19.0021 94.1427 16.7216C94.273 16.7514 94.4033 16.783 94.5337 16.8054C96.1477 17.0865 97.8158 16.8966 99.4242 16.5987C105.214 15.5264 111.14 12.6892 117.034 12.9294C117.19 12.935 117.259 12.7321 117.125 12.6483C110.873 8.75555 102.82 7.25132 95.3528 8.60289Z" fill="#0E9749"/>
</svg>
