<svg width="119" height="119" viewBox="0 0 119 119" fill="none" xmlns="http://www.w3.org/2000/svg">
<g filter="url(#filter0_d_0_564)">
<g clip-path="url(#clip0_0_564)">
<path d="M106.318 41.4545H99.2368C98.7411 40.0541 98.1706 38.6789 97.5273 37.3358L102.537 32.3262C104.365 30.4978 104.365 27.5336 102.537 25.7052L89.2951 12.4629C88.4171 11.5849 87.226 11.0914 85.9844 11.0914C84.7428 11.0914 83.5521 11.5845 82.6741 12.4629L77.6642 17.4724C76.3208 16.8291 74.9463 16.2589 73.5455 15.7632V8.68182C73.5455 6.09621 71.4492 4 68.8636 4H50.1364C47.5508 4 45.4545 6.09621 45.4545 8.68182V15.7632C44.0537 16.2589 42.6789 16.8294 41.3361 17.4724L36.3262 12.4629C34.4982 10.6344 31.5336 10.6344 29.7052 12.4629L16.4629 25.7052C14.6344 27.5336 14.6344 30.4978 16.4629 32.3262L21.4724 37.3361C20.8294 38.6792 20.2592 40.0537 19.7635 41.4545H12.6818C10.0962 41.4545 8 43.5508 8 46.1364V64.8636C8 67.4492 10.0962 69.5455 12.6818 69.5455H19.7635C20.2592 70.9459 20.8297 72.3212 21.4724 73.6639L16.4629 78.6738C15.5849 79.5518 15.0914 80.7425 15.0914 81.9841C15.0914 83.226 15.5845 84.4168 16.4629 85.2948L29.7055 98.5368C31.5339 100.365 34.4982 100.365 36.3262 98.5368L41.3364 93.5276C42.6798 94.1706 44.0541 94.7411 45.4545 95.2368V102.318C45.4545 104.904 47.5508 107 50.1364 107H68.8636C71.4492 107 73.5455 104.904 73.5455 102.318V95.2365C74.9463 94.7408 76.3212 94.1706 77.6642 93.5273L82.6744 98.5368C84.5025 100.365 87.4667 100.365 89.2951 98.5365L102.537 85.2945C104.366 83.4661 104.366 80.5018 102.537 78.6734L97.5276 73.6639C98.1709 72.3208 98.7414 70.9459 99.2371 69.5451H106.318C108.904 69.5451 111 67.4489 111 64.8633V46.1361C111 43.5508 108.904 41.4545 106.318 41.4545ZM101.636 60.1818H95.7744C93.6376 60.1818 91.7724 61.6282 91.2402 63.6976C90.4802 66.653 89.301 69.4946 87.736 72.1429C86.6492 73.9823 86.9454 76.3244 88.4564 77.8351L92.6058 81.9844L85.9847 88.6055L81.8351 84.4564C80.3247 82.9461 77.9829 82.6496 76.1439 83.736C73.4955 85.3004 70.6533 86.4796 67.6969 87.2409C65.6279 87.773 64.1818 89.6383 64.1818 91.7747V97.6364H54.8182V91.7747C54.8182 89.6386 53.3721 87.7733 51.3034 87.2409C48.3473 86.4799 45.5057 85.3007 42.8568 83.736C41.0171 82.6492 38.6759 82.9458 37.1655 84.4564L33.0159 88.6055L26.3942 81.9841L30.5436 77.8348C32.0546 76.3241 32.3508 73.9823 31.264 72.1429C29.6996 69.4952 28.5207 66.6533 27.7595 63.6966C27.2273 61.6279 25.3617 60.1818 23.2256 60.1818H17.3636V50.8182H23.2256C25.3617 50.8182 27.227 49.3721 27.7595 47.3034C28.5204 44.3463 29.6996 41.5045 31.264 38.8568C32.3508 37.0174 32.0546 34.6756 30.5436 33.1649L26.3946 29.0156L33.0159 22.3946L37.1652 26.5436C38.6759 28.0542 41.0181 28.3508 42.8571 27.264C45.5051 25.6993 48.3473 24.5204 51.3037 23.7591C53.3721 23.227 54.8182 21.3617 54.8182 19.2253V13.3636H64.1818V19.2253C64.1818 21.3614 65.6279 23.2267 67.6966 23.7591C70.6537 24.5204 73.4955 25.6993 76.1436 27.264C77.9832 28.3505 80.3247 28.0542 81.8354 26.5436L85.9847 22.3946L92.6058 29.0156L88.4564 33.1649C86.9454 34.6756 86.6492 37.0177 87.736 38.8571C89.301 41.5051 90.4799 44.3467 91.2402 47.3024C91.7724 49.3715 93.6379 50.8179 95.7744 50.8179H101.636V60.1818Z" fill="#FFCD00"/>
<path d="M66.1776 45.3227L55.4425 56.0575L52.5104 53.1258C50.6823 51.2974 47.7178 51.2974 45.8894 53.1258C44.061 54.9542 44.061 57.9184 45.8894 59.7468L52.1318 65.9892C53.046 66.9034 54.2442 67.3604 55.4425 67.3604C56.6407 67.3604 57.8389 66.9034 58.7528 65.9889L72.7983 51.9435C74.6267 50.1151 74.6267 47.1508 72.7983 45.3224C70.9702 43.494 68.0057 43.494 66.1776 45.3227Z" fill="#FFCD00"/>
</g>
</g>
<defs>
<filter id="filter0_d_0_564" x="0" y="0" width="119" height="119" filterUnits="userSpaceOnUse" color-interpolation-filters="sRGB">
<feFlood flood-opacity="0" result="BackgroundImageFix"/>
<feColorMatrix in="SourceAlpha" type="matrix" values="0 0 0 0 0 0 0 0 0 0 0 0 0 0 0 0 0 0 127 0" result="hardAlpha"/>
<feOffset dy="4"/>
<feGaussianBlur stdDeviation="4"/>
<feComposite in2="hardAlpha" operator="out"/>
<feColorMatrix type="matrix" values="0 0 0 0 1 0 0 0 0 0.8 0 0 0 0 0 0 0 0 0.25 0"/>
<feBlend mode="normal" in2="BackgroundImageFix" result="effect1_dropShadow_0_564"/>
<feBlend mode="normal" in="SourceGraphic" in2="effect1_dropShadow_0_564" result="shape"/>
</filter>
<clipPath id="clip0_0_564">
<rect width="103" height="103" fill="white" transform="translate(8 4)"/>
</clipPath>
</defs>
</svg>
